C:\Users\israe\Dropbox\PhDWork\ExperimentalData\subject9\145\P9S145W01_filtered35.mot
nRows=13
nColumns=28

name C:\Users\israe\Dropbox\PhDWork\ExperimentalData\subject9\145\P9S145W01_filtered35.mot
datacolumns 28
datarows 13
range 1.6720000000 1.6840000000
endheader
time	ground_force_1_vx	ground_force_1_vy	ground_force_1_vz	ground_force_1_px	ground_force_1_py	ground_force_1_pz	ground_moment_1_mx	ground_moment_1_my	ground_moment_1_mz	ground_force_2_vx	ground_force_2_vy	ground_force_2_vz	ground_force_2_px	ground_force_2_py	ground_force_2_pz	ground_moment_2_mx	ground_moment_2_my	ground_moment_2_mz	ground_force_3_vx	ground_force_3_vy	ground_force_3_vz	ground_force_3_px	ground_force_3_py	ground_force_3_pz	ground_moment_3_mx	ground_moment_3_my	ground_moment_3_mz
        1.6720000000	       -0.0000000000	        0.0000000000	        0.0000000000	        0.1988394961	        0.0000558755	       -0.3004071324	        0.0000000000	        0.0000000000	        0.0000000000	        0.0000000000	        0.0000000000	       -0.0000000000	        0.2029003516	       -0.0000795827	        0.4543649445	       -0.0000000000	        0.0000000000	        0.0000000000	       -0.0017459645	        0.0640589554	       -0.0210436880	        0.2076431971	        0.0000770316	        1.3583900146	       -0.0073084633	       -0.0016227150	       -0.0050332809	
        1.6730000000	       -0.0000000000	        0.0000000000	        0.0000000000	        0.1988394961	        0.0000558755	       -0.3004071324	        0.0000000000	        0.0000000000	        0.0000000000	        0.0000000000	        0.0000000000	       -0.0000000000	        0.2029003516	       -0.0000795827	        0.4543649445	       -0.0000000000	        0.0000000000	       -0.0000000000	       -0.0021373113	        0.0556762544	       -0.0192142718	        0.2076431971	        0.0000770316	        1.3583900146	       -0.0064459756	       -0.0015408532	       -0.0044133094	
        1.6740000000	       -0.0000000000	        0.0000000000	        0.0000000000	        0.1988394961	        0.0000558755	       -0.3004071324	        0.0000000000	        0.0000000000	        0.0000000000	        0.0000000000	        0.0000000000	       -0.0000000000	        0.2029003516	       -0.0000795827	        0.4543649445	        0.0000000000	        0.0000000000	       -0.0000000000	       -0.0022689519	        0.0464975532	       -0.0167684192	        0.2076431971	        0.0000770316	        1.3583900146	       -0.0054566183	       -0.0013887212	       -0.0037159412	
        1.6750000000	       -0.0000000000	        0.0000000000	        0.0000000000	        0.1988394961	        0.0000558755	       -0.3004071324	        0.0000000000	        0.0000000000	        0.0000000000	        0.0000000000	        0.0000000000	        0.0000000000	        0.2029003516	       -0.0000795827	        0.4543649445	        0.0000000000	        0.0000000000	       -0.0000000000	       -0.0022160851	        0.0373539068	       -0.0140575009	        0.2076431971	        0.0000770316	        1.3583900146	       -0.0044431662	       -0.0011984335	       -0.0030097538	
        1.6760000000	       -0.0000000000	        0.0000000000	        0.0000000000	        0.1988394961	        0.0000558755	       -0.3004071324	        0.0000000000	        0.0000000000	        0.0000000000	        0.0000000000	        0.0000000000	        0.0000000000	        0.2029003516	       -0.0000795827	        0.4543649445	        0.0000000000	       -0.0000000000	       -0.0000000000	       -0.0020413107	        0.0288071365	       -0.0113365974	        0.2076431971	        0.0000770316	        1.3583900146	       -0.0034768803	       -0.0009941769	       -0.0023418418	
        1.6770000000	       -0.0000000000	        0.0000000000	        0.0000000000	        0.1988394961	        0.0000558755	       -0.3004071324	        0.0000000000	        0.0000000000	        0.0000000000	        0.0000000000	        0.0000000000	        0.0000000000	        0.2029003516	       -0.0000795827	        0.4543649445	        0.0000000000	       -0.0000000000	       -0.0000000000	       -0.0017947546	        0.0212011279	       -0.0087794520	        0.2076431971	        0.0000770316	        1.3583900146	       -0.0026031679	       -0.0007932417	       -0.0017417683	
        1.6780000000	       -0.0000000000	        0.0000000000	        0.0000000000	        0.1988394961	        0.0000558755	       -0.3004071324	        0.0000000000	        0.0000000000	        0.0000000000	        0.0000000000	        0.0000000000	        0.0000000000	        0.2029003516	       -0.0000795827	        0.4543649445	        0.0000000000	       -0.0000000000	       -0.0000000000	       -0.0015149349	        0.0147103054	       -0.0064937164	        0.2076431971	        0.0000770316	        1.3583900146	       -0.0018470435	       -0.0006071545	       -0.0012253454	
        1.6790000000	       -0.0000000000	        0.0000000000	        0.0000000000	        0.1988394961	        0.0000558755	       -0.3004071324	        0.0000000000	        0.0000000000	        0.0000000000	        0.0000000000	        0.0000000000	        0.0000000000	        0.2029003516	       -0.0000795827	        0.4543649445	        0.0000000000	       -0.0000000000	       -0.0000000000	       -0.0012300779	        0.0093831516	       -0.0045354409	        0.2076431971	        0.0000770316	        1.3583900146	       -0.0012181142	       -0.0004428075	       -0.0007980614	
        1.6800000000	       -0.0000000000	        0.0000000000	        0.0000000000	        0.1988394961	        0.0000558755	       -0.3004071324	        0.0000000000	        0.0000000000	        0.0000000000	        0.0000000000	        0.0000000000	        0.0000000000	        0.2029003516	       -0.0000795827	        0.4543649445	        0.0000000000	       -0.0000000000	       -0.0000000000	       -0.0009596559	        0.0051796370	       -0.0029221414	        0.2076431971	        0.0000770316	        1.3583900146	       -0.0007149279	       -0.0003035156	       -0.0004580543	
        1.6810000000	       -0.0000000000	        0.0000000000	        0.0000000000	        0.1988394961	        0.0000558755	       -0.3004071324	       -0.0000000000	        0.0000000000	        0.0000000000	        0.0000000000	        0.0000000000	        0.0000000000	        0.2029003516	       -0.0000795827	        0.4543649445	        0.0000000000	       -0.0000000000	       -0.0000000000	       -0.0007159794	        0.0020021692	       -0.0016440842	        0.2076431971	        0.0000770316	        1.3583900146	       -0.0003286181	       -0.0001899583	       -0.0001985903	
        1.6820000000	       -0.0000000000	        0.0000000000	       -0.0000000000	        0.1988394961	        0.0000558755	       -0.3004071324	       -0.0000000000	        0.0000000000	       -0.0000000000	        0.0000000000	        0.0000000000	        0.0000000000	        0.2029003516	       -0.0000795827	        0.4543649445	        0.0000000000	       -0.0000000000	       -0.0000000000	       -0.0005057271	        0.0000000000	       -0.0006736516	        0.2076431971	        0.0000770316	        1.3583900146	       -0.0000458420	       -0.0001009837	       -0.0000100512	
        1.6830000000	        0.0000000000	        0.0000000000	       -0.0000000000	        0.1988394961	        0.0000558755	       -0.3004071324	       -0.0000000000	       -0.0000000000	       -0.0000000000	        0.0000000000	        0.0000000000	        0.0000000000	        0.2029003516	       -0.0000795827	        0.4543649445	        0.0000000000	       -0.0000000000	       -0.0000000000	       -0.0003313368	        0.0000000000	        0.0000271807	        0.2076431971	        0.0000770316	        1.3583900146	        0.0001489449	       -0.0000342695	        0.0001185360	
        1.6840000000	        0.0000000000	        0.0000000000	       -0.0000000000	        0.1988394961	        0.0000558755	       -0.3004071324	       -0.0000000000	       -0.0000000000	       -0.0000000000	        0.0000000000	        0.0000000000	        0.0000000000	        0.2029003516	       -0.0000795827	        0.4543649445	        0.0000000000	       -0.0000000000	       -0.0000000000	       -0.0001922153	        0.0000000000	        0.0005011161	        0.2076431971	        0.0000770316	        1.3583900146	        0.0002718071	        0.0000131559	        0.0001983759	
